<mxfile host="65bd71144e">
    <diagram id="tgnX6njgTuQziLs_TpqI" name="Page-1">
        <mxGraphModel dx="1763" dy="1418" grid="1" gridSize="10" guides="1" tooltips="1" connect="1" arrows="1" fold="1" page="1" pageScale="1" pageWidth="1654" pageHeight="1169" math="0" shadow="0">
            <root>
                <mxCell id="0"/>
                <mxCell id="1" parent="0"/>
                <mxCell id="2" value="DiscountService" style="swimlane;" parent="1" vertex="1">
                    <mxGeometry x="530" y="250" width="560" height="570" as="geometry"/>
                </mxCell>
                <mxCell id="3" value="&lt;table border=&quot;0&quot; cellpadding=&quot;0&quot; cellspacing=&quot;0&quot; dir=&quot;RTL&quot; width=&quot;229&quot; style=&quot;border-collapse: collapse ; width: 172pt ; font-size: 36px&quot;&gt; &lt;colgroup&gt;&lt;col width=&quot;229&quot; style=&quot;width: 172pt&quot;&gt;&lt;/colgroup&gt; &lt;tbody&gt;&lt;tr style=&quot;height: 13.2pt&quot;&gt;  &lt;td height=&quot;18&quot; class=&quot;xl65&quot; dir=&quot;LTR&quot; align=&quot;left&quot; width=&quot;229&quot; style=&quot;height: 13.2pt ; width: 172pt&quot;&gt;&lt;font style=&quot;font-size: 36px&quot;&gt;&lt;font color=&quot;#ffffff&quot; style=&quot;font-size: 36px&quot;&gt;CreateDiscount&lt;/font&gt;&lt;br&gt;&lt;/font&gt;&lt;/td&gt; &lt;/tr&gt; &lt;tr style=&quot;height: 13.2pt&quot;&gt;  &lt;td height=&quot;18&quot; class=&quot;xl65&quot; dir=&quot;LTR&quot; align=&quot;left&quot; style=&quot;height: 13.2pt&quot;&gt;&lt;font color=&quot;#ffffff&quot; style=&quot;font-size: 36px&quot;&gt;CanApplyDiscountToOrder&lt;/font&gt;&lt;/td&gt;&lt;/tr&gt;&lt;tr style=&quot;height: 13.2pt&quot;&gt;&lt;td height=&quot;18&quot; class=&quot;xl65&quot; dir=&quot;LTR&quot; align=&quot;left&quot; style=&quot;height: 13.2pt&quot;&gt;&lt;font style=&quot;font-size: 36px&quot; color=&quot;#ffffff&quot;&gt;EditDiscount&lt;/font&gt;&lt;/td&gt; &lt;/tr&gt; &lt;tr style=&quot;height: 13.2pt&quot;&gt;  &lt;td height=&quot;18&quot; class=&quot;xl65&quot; dir=&quot;LTR&quot; align=&quot;left&quot; style=&quot;height: 13.2pt&quot;&gt;&lt;font color=&quot;#ffffff&quot; style=&quot;font-size: 36px&quot;&gt;GetDiscountById&lt;/font&gt;&lt;/td&gt;&lt;/tr&gt;&lt;tr style=&quot;height: 13.2pt&quot;&gt;&lt;td height=&quot;18&quot; class=&quot;xl65&quot; dir=&quot;LTR&quot; align=&quot;left&quot; style=&quot;height: 13.2pt&quot;&gt;&lt;font color=&quot;#ffffff&quot; style=&quot;font-size: 36px&quot;&gt;GetAllDiscounts&lt;/font&gt;&lt;/td&gt;&lt;/tr&gt;&lt;tr style=&quot;height: 13.2pt&quot;&gt;&lt;td height=&quot;18&quot; class=&quot;xl65&quot; dir=&quot;LTR&quot; align=&quot;left&quot; style=&quot;height: 13.2pt&quot;&gt;&lt;font style=&quot;font-size: 36px&quot; color=&quot;#ffffff&quot;&gt;UpdateDiscount&lt;/font&gt;&lt;/td&gt; &lt;/tr&gt; &lt;tr style=&quot;height: 13.2pt&quot;&gt;  &lt;td height=&quot;18&quot; class=&quot;xl65&quot; dir=&quot;LTR&quot; align=&quot;left&quot; style=&quot;height: 13.2pt&quot;&gt;&lt;font style=&quot;font-size: 36px&quot;&gt;&lt;font color=&quot;#ffffff&quot; style=&quot;font-size: 36px&quot;&gt;GetDiscountUsageHistoryById&lt;/font&gt;&lt;br&gt;&lt;/font&gt;&lt;/td&gt; &lt;/tr&gt; &lt;tr style=&quot;height: 13.2pt&quot;&gt;  &lt;td height=&quot;18&quot; class=&quot;xl65&quot; dir=&quot;LTR&quot; align=&quot;left&quot; style=&quot;height: 13.2pt&quot;&gt;&lt;font style=&quot;font-size: 36px&quot;&gt;&lt;font color=&quot;#ffffff&quot; style=&quot;font-size: 36px&quot;&gt;GetAllDiscountUsageHistory&lt;/font&gt;&lt;br&gt;&lt;/font&gt;&lt;/td&gt; &lt;/tr&gt; &lt;tr style=&quot;height: 13.2pt&quot;&gt;  &lt;td height=&quot;18&quot; class=&quot;xl65&quot; dir=&quot;LTR&quot; align=&quot;left&quot; style=&quot;height: 13.2pt&quot;&gt;&lt;font style=&quot;font-size: 36px&quot;&gt;&lt;font color=&quot;#ffffff&quot; style=&quot;font-size: 36px&quot;&gt;InsertDiscountUsageHistory&lt;/font&gt;&lt;br&gt;&lt;/font&gt;&lt;/td&gt; &lt;/tr&gt; &lt;tr style=&quot;height: 13.2pt&quot;&gt;  &lt;td height=&quot;18&quot; class=&quot;xl65&quot; dir=&quot;LTR&quot; align=&quot;left&quot; style=&quot;height: 13.2pt&quot;&gt;&lt;font style=&quot;font-size: 36px&quot;&gt;&lt;font color=&quot;#ffffff&quot; style=&quot;font-size: 36px&quot;&gt;DeleteDiscountUsageHistory&lt;/font&gt;&lt;br&gt;&lt;/font&gt;&lt;/td&gt; &lt;/tr&gt; &lt;tr style=&quot;height: 13.2pt&quot;&gt;  &lt;td height=&quot;18&quot; class=&quot;xl65&quot; dir=&quot;LTR&quot; align=&quot;left&quot; style=&quot;height: 13.2pt&quot;&gt;&lt;font style=&quot;font-size: 36px&quot;&gt;&lt;font color=&quot;#ffffff&quot; style=&quot;font-size: 36px&quot;&gt;SetdiscountLimitation&lt;/font&gt;&lt;br&gt;&lt;/font&gt;&lt;/td&gt; &lt;/tr&gt; &lt;tr style=&quot;height: 13.2pt&quot;&gt;  &lt;td height=&quot;18&quot; class=&quot;xl65&quot; dir=&quot;LTR&quot; align=&quot;left&quot; style=&quot;height: 13.2pt&quot;&gt;&lt;font style=&quot;font-size: 36px&quot;&gt;&lt;br&gt;&lt;/font&gt;&lt;/td&gt;&lt;/tr&gt;&lt;/tbody&gt;&lt;/table&gt;" style="text;html=1;align=center;verticalAlign=middle;resizable=0;points=[];autosize=1;strokeColor=none;fillColor=none;perimeterSpacing=1;" parent="2" vertex="1">
                    <mxGeometry x="10" y="220" width="500" height="220" as="geometry"/>
                </mxCell>
            </root>
        </mxGraphModel>
    </diagram>
</mxfile>